<svg xmlns="http://www.w3.org/2000/svg" version="1.1" xmlns:xlink="http://www.w3.org/1999/xlink" xmlns:svgjs="http://svgjs.dev/svgjs" width="100%" height="100%" viewBox="0 0 1000 600"><rect width="1000" height="600" x="0" y="0" fill="#4a171e"/><g><circle r="166.66666666666666" cx="257.37353006998694" cy="279.5957613422238" fill="#E2V144" transform="matrix(1.3780656579692019,0,0,1.378065657969202,0,-85.30131552929767)"/><path d="M315.4380463930248 318.7707057481064L320.18370315268146 325.1447741409784Q302.3642272806376 340.5448955865308 285.52179838852294 347.57032863268904Q268.6793694964083 354.5957616788474 252.813987584223 354.5957616788474L252.813987584223 354.5957616788474Q238.3909131186 354.5957616788474 227.3642400593979 349.47789654588433Q216.3375670001958 344.3135053662581 208.8003474407412 335.47355650023104Q201.26312788128658 326.6336076342041 197.447992054896 314.676413641736Q193.5863301818421 302.7657456959312 193.5863301818421 289.0405619302577L193.5863301818421 289.0405619302577Q193.5863301818421 272.15160699147975 199.4020860147546 256.7980115925908Q205.2178418476671 241.39789014703845 216.01188467355271 229.90595662120333Q226.8059274994383 218.36749704870496 242.1595228983273 211.48164214253654Q257.55964434387965 204.59578723636815 276.681849522496 204.59578723636815L276.681849522496 204.59578723636815Q286.6384235084422 204.59578723636815 294.8270077211829 206.73598538287996Q303.0155919339237 208.87618352939174 308.9243998601629 212.31911098247596Q314.7866817397387 215.76203843556013 317.99697895950635 220.32159100856356Q321.1607501326107 224.88114358156696 321.1607501326107 229.81290452787675L321.1607501326107 229.81290452787675Q321.1607501326107 233.39541012095086 319.6253905927218 236.37307710740205Q318.04350500616965 239.30421804718995 315.4380463930248 241.35136410037515Q312.8325877798801 243.39851015356035 309.2966082334692 244.70123946013277Q305.80715473372175 246.00396876670513 302.03854495399446 246.14354690669504L302.03854495399446 246.14354690669504Q301.52675844069813 241.07220782039533 299.340034247523 235.53560826746266Q297.1067840076846 229.95248266786666 292.6402835280079 225.39293009486326Q288.1272570016678 220.83337752185983 281.194876048836 217.85571053540863Q274.2159690493411 214.92456959562074 264.2593950633949 214.92456959562074L264.2593950633949 214.92456959562074Q255.605550384021 214.92456959562074 246.99823175131053 218.60012728202145Q238.3909131186 222.27568496842215 231.5515842590949 229.90595662120333Q224.66572935292652 237.48970222732126 220.3388070132396 249.1212138931463Q216.01188467355271 260.706199512308 216.01188467355271 276.5715814244933L216.01188467355271 276.5715814244933Q216.01188467355271 291.1342340301062 219.78049445328 302.11438104264505Q223.502578186344 313.0480020085204 230.481485185839 320.5852215679751Q237.4138661386707 328.1224411274297 247.09128384463713 331.89105090715697Q256.7221755039402 335.61313464022095 268.4932653097552 335.61313464022095L268.4932653097552 335.61313464022095Q272.9132397427686 335.61313464022095 278.1706830157216 335.0548220802613Q283.38160024201113 334.4965095203018 289.2904081682502 332.6819937004331Q295.152690047826 330.9140039272277 301.71286262735134 327.61065461413335Q308.27303520687667 324.3538313477024 315.4380463930248 318.7707057481064L315.4380463930248 318.7707057481064Z " fill="#4a171e" transform="matrix(1.3780656579692019,0,0,1.378065657969202,0,-85.30131552929767)"/><path d="M629.2252587648511 318.7707057481064L633.9709155245077 325.1447741409784Q616.1514396524638 340.5448955865308 599.3090107603491 347.57032863268904Q582.4665818682345 354.5957616788474 566.6011999560492 354.5957616788474L566.6011999560492 354.5957616788474Q552.1781254904263 354.5957616788474 541.1514524312242 349.47789654588433Q530.124779372022 344.3135053662581 522.5875598125674 335.47355650023104Q515.0503402531128 326.6336076342041 511.2352044267222 314.676413641736Q507.3735425536683 302.7657456959312 507.3735425536683 289.0405619302577L507.3735425536683 289.0405619302577Q507.3735425536683 272.15160699147975 513.1892983865807 256.7980115925908Q519.0050542194933 241.39789014703845 529.7990970453789 229.90595662120333Q540.5931398712646 218.36749704870496 555.9467352701536 211.48164214253654Q571.3468567157058 204.59578723636815 590.4690618943221 204.59578723636815L590.4690618943221 204.59578723636815Q600.4256358802684 204.59578723636815 608.6142200930092 206.73598538287996Q616.80280430575 208.87618352939174 622.711612231989 212.31911098247596Q628.5738941115649 215.76203843556013 631.7841913313325 220.32159100856356Q634.9479625044369 224.88114358156696 634.9479625044369 229.81290452787675L634.9479625044369 229.81290452787675Q634.9479625044369 233.39541012095086 633.4126029645481 236.37307710740205Q631.8307173779958 239.30421804718995 629.2252587648511 241.35136410037515Q626.6198001517062 243.39851015356035 623.0838206052954 244.70123946013277Q619.5943671055479 246.00396876670513 615.8257573258206 246.14354690669504L615.8257573258206 246.14354690669504Q615.3139708125243 241.07220782039533 613.1272466193493 235.53560826746266Q610.8939963795108 229.95248266786666 606.427495899834 225.39293009486326Q601.9144693734941 220.83337752185983 594.9820884206622 217.85571053540863Q588.0031814211673 214.92456959562074 578.046607435221 214.92456959562074L578.046607435221 214.92456959562074Q569.3927627558473 214.92456959562074 560.7854441231368 218.60012728202145Q552.1781254904263 222.27568496842215 545.338796630921 229.90595662120333Q538.4529417247527 237.48970222732126 534.1260193850658 249.1212138931463Q529.7990970453789 260.706199512308 529.7990970453789 276.5715814244933L529.7990970453789 276.5715814244933Q529.7990970453789 291.1342340301062 533.5677068251061 302.11438104264505Q537.2897905581701 313.0480020085204 544.2686975576653 320.5852215679751Q551.2010785104969 328.1224411274297 560.8784962164634 331.89105090715697Q570.5093878757664 335.61313464022095 582.2804776815813 335.61313464022095L582.2804776815813 335.61313464022095Q586.7004521145948 335.61313464022095 591.9578953875478 335.0548220802613Q597.1688126138374 334.4965095203018 603.0776205400764 332.6819937004331Q608.9399024196523 330.9140039272277 615.5000749991775 327.61065461413335Q622.060247578703 324.3538313477024 629.2252587648511 318.7707057481064L629.2252587648511 318.7707057481064Z " fill="#E2V144" transform="matrix(1.3780656579692019,0,0,1.378065657969202,0,-85.30131552929767)"/></g></svg>